<svg id="svg" version="1.1" xmlns="http://www.w3.org/2000/svg" xmlns:xlink="http://www.w3.org/1999/xlink" width="400" height="400" viewBox="0, 0, 400,400"><g id="svgg"><path id="path0" d="M50.880 26.080 C 50.529 26.431,50.400 29.603,50.400 37.851 C 50.400 47.583,50.313 49.230,49.771 49.771 C 49.230 50.313,47.583 50.400,37.851 50.400 C 29.603 50.400,26.431 50.529,26.080 50.880 C 25.338 51.622,25.385 348.524,26.127 349.139 C 27.038 349.895,46.425 350.015,199.730 350.212 L 348.059 350.402 349.231 349.231 L 350.402 348.059 350.212 199.730 C 350.015 46.425,349.895 27.038,349.139 26.127 C 348.524 25.385,51.622 25.338,50.880 26.080 M348.712 37.400 C 348.774 43.560,348.725 49.005,348.604 49.501 L 348.384 50.401 199.892 50.301 L 51.400 50.200 51.294 38.605 C 51.235 32.228,51.275 26.782,51.381 26.504 C 51.537 26.098,80.727 26.019,200.088 26.099 L 348.600 26.200 348.712 37.400 M50.301 199.892 L 50.401 348.384 49.501 348.604 C 49.005 348.725,43.560 348.774,37.400 348.712 L 26.200 348.600 26.098 200.400 C 26.041 118.890,26.082 51.972,26.187 51.694 C 26.338 51.298,28.976 51.211,38.290 51.294 L 50.200 51.400 50.301 199.892 M325.200 74.800 C 326.266 75.866,326.459 99.241,325.413 100.624 C 324.930 101.261,324.823 103.358,324.813 112.369 C 324.796 126.374,326.365 124.797,312.438 124.813 C 303.366 124.823,301.262 124.930,300.624 125.413 C 299.241 126.459,275.866 126.266,274.800 125.200 C 274.017 124.417,274.000 123.867,274.000 100.000 C 274.000 76.133,274.017 75.583,274.800 74.800 C 275.583 74.017,276.133 74.000,300.000 74.000 C 323.867 74.000,324.417 74.017,325.200 74.800 M225.200 174.800 C 226.266 175.866,226.459 199.241,225.413 200.624 C 224.930 201.261,224.823 203.358,224.813 212.369 C 224.796 226.374,226.365 224.797,212.438 224.813 C 203.366 224.823,201.262 224.930,200.624 225.413 C 199.241 226.459,175.866 226.266,174.800 225.200 C 174.017 224.417,174.000 223.867,174.000 200.000 C 174.000 176.133,174.017 175.583,174.800 174.800 C 175.583 174.017,176.133 174.000,200.000 174.000 C 223.867 174.000,224.417 174.017,225.200 174.800 M125.200 274.800 C 126.266 275.866,126.459 299.241,125.413 300.624 C 124.930 301.261,124.823 303.358,124.813 312.369 C 124.796 326.374,126.365 324.797,112.438 324.813 C 103.366 324.823,101.262 324.930,100.624 325.413 C 99.241 326.459,75.866 326.266,74.800 325.200 C 74.017 324.417,74.000 323.867,74.000 300.000 C 74.000 276.133,74.017 275.583,74.800 274.800 C 75.583 274.017,76.133 274.000,100.000 274.000 C 123.867 274.000,124.417 274.017,125.200 274.800 " stroke="none" fill="#bcb49c" fill-rule="evenodd"></path><path id="path1" d="M50.489 25.023 C 49.605 25.642,49.600 25.715,49.600 37.143 C 49.600 45.552,49.471 48.769,49.120 49.120 C 48.769 49.471,45.552 49.600,37.143 49.600 C 25.715 49.600,25.642 49.605,25.023 50.489 C 24.070 51.850,24.070 348.150,25.023 349.511 C 25.641 350.394,25.720 350.400,37.004 350.400 C 44.772 350.400,48.684 350.547,49.381 350.864 L 50.400 351.328 50.400 362.650 C 50.400 373.434,50.437 373.992,51.174 374.386 C 52.257 374.966,347.743 374.966,348.826 374.386 C 349.563 373.992,349.600 373.434,349.600 362.656 C 349.600 348.012,348.005 349.600,362.712 349.600 C 373.435 349.600,373.992 349.563,374.386 348.826 C 374.966 347.743,374.966 52.257,374.386 51.174 C 373.992 50.437,373.434 50.400,362.650 50.400 L 351.328 50.400 350.864 49.381 C 350.547 48.684,350.400 44.772,350.400 37.004 C 350.400 25.720,350.394 25.641,349.511 25.023 C 348.150 24.070,51.850 24.070,50.489 25.023 M349.139 26.127 C 349.895 27.038,350.015 46.425,350.212 199.730 L 350.402 348.059 349.231 349.231 L 348.059 350.402 199.730 350.212 C 46.425 350.015,27.038 349.895,26.127 349.139 C 25.385 348.524,25.338 51.622,26.080 50.880 C 26.431 50.529,29.603 50.400,37.851 50.400 C 47.583 50.400,49.230 50.313,49.771 49.771 C 50.313 49.230,50.400 47.583,50.400 37.851 C 50.400 29.603,50.529 26.431,50.880 26.080 C 51.622 25.338,348.524 25.385,349.139 26.127 M274.800 74.800 C 274.017 75.583,274.000 76.133,274.000 100.000 C 274.000 123.867,274.017 124.417,274.800 125.200 C 275.866 126.266,299.241 126.459,300.624 125.413 C 301.262 124.930,303.366 124.823,312.438 124.813 C 326.365 124.797,324.796 126.374,324.813 112.369 C 324.823 103.358,324.930 101.261,325.413 100.624 C 326.459 99.241,326.266 75.866,325.200 74.800 C 324.417 74.017,323.867 74.000,300.000 74.000 C 276.133 74.000,275.583 74.017,274.800 74.800 M324.320 75.680 C 325.121 76.481,324.990 98.350,324.177 99.511 C 323.559 100.393,323.472 100.400,312.457 100.400 C 304.359 100.400,301.230 100.530,300.880 100.880 C 300.530 101.230,300.400 104.359,300.400 112.457 C 300.400 123.472,300.393 123.559,299.511 124.177 C 298.350 124.990,276.481 125.121,275.680 124.320 C 274.987 123.627,274.987 76.373,275.680 75.680 C 276.373 74.987,323.627 74.987,324.320 75.680 M174.800 174.800 C 174.017 175.583,174.000 176.133,174.000 200.000 C 174.000 223.867,174.017 224.417,174.800 225.200 C 175.866 226.266,199.241 226.459,200.624 225.413 C 201.262 224.930,203.366 224.823,212.438 224.813 C 226.365 224.797,224.796 226.374,224.813 212.369 C 224.823 203.358,224.930 201.261,225.413 200.624 C 226.459 199.241,226.266 175.866,225.200 174.800 C 224.417 174.017,223.867 174.000,200.000 174.000 C 176.133 174.000,175.583 174.017,174.800 174.800 M224.320 175.680 C 225.121 176.481,224.990 198.350,224.177 199.511 C 223.559 200.393,223.472 200.400,212.457 200.400 C 204.359 200.400,201.230 200.530,200.880 200.880 C 200.530 201.230,200.400 204.359,200.400 212.457 C 200.400 223.472,200.393 223.559,199.511 224.177 C 198.350 224.990,176.481 225.121,175.680 224.320 C 174.987 223.627,174.987 176.373,175.680 175.680 C 176.373 174.987,223.627 174.987,224.320 175.680 M74.800 274.800 C 74.017 275.583,74.000 276.133,74.000 300.000 C 74.000 323.867,74.017 324.417,74.800 325.200 C 75.866 326.266,99.241 326.459,100.624 325.413 C 101.262 324.930,103.366 324.823,112.438 324.813 C 126.365 324.797,124.796 326.374,124.813 312.369 C 124.823 303.358,124.930 301.261,125.413 300.624 C 126.459 299.241,126.266 275.866,125.200 274.800 C 124.417 274.017,123.867 274.000,100.000 274.000 C 76.133 274.000,75.583 274.017,74.800 274.800 M124.320 275.680 C 125.121 276.481,124.990 298.350,124.177 299.511 C 123.559 300.393,123.472 300.400,112.457 300.400 C 104.359 300.400,101.230 300.530,100.880 300.880 C 100.530 301.230,100.400 304.359,100.400 312.457 C 100.400 323.472,100.393 323.559,99.511 324.177 C 98.350 324.990,76.481 325.121,75.680 324.320 C 74.987 323.627,74.987 276.373,75.680 275.680 C 76.373 274.987,123.627 274.987,124.320 275.680 " stroke="none" fill="#a49c8c" fill-rule="evenodd"></path><path id="path2" d="M51.381 26.504 C 51.275 26.782,51.235 32.228,51.294 38.605 L 51.400 50.200 199.892 50.301 L 348.384 50.401 348.604 49.501 C 348.725 49.005,348.774 43.560,348.712 37.400 L 348.600 26.200 200.088 26.099 C 80.727 26.019,51.537 26.098,51.381 26.504 M26.187 51.694 C 26.082 51.972,26.041 118.890,26.098 200.400 L 26.200 348.600 37.400 348.712 C 43.560 348.774,49.005 348.725,49.501 348.604 L 50.401 348.384 50.301 199.892 L 50.200 51.400 38.290 51.294 C 28.976 51.211,26.338 51.298,26.187 51.694 " stroke="none" fill="#d4ccb4" fill-rule="evenodd"></path><path id="path3" d="M48.400 11.800 L 48.400 23.600 36.000 23.600 L 23.600 23.600 23.600 36.000 L 23.600 48.400 11.800 48.400 L 0.000 48.400 0.000 200.000 L 0.000 351.600 11.800 351.600 L 23.600 351.600 23.600 364.000 L 23.600 376.400 36.000 376.400 L 48.400 376.400 48.400 388.200 L 48.400 400.000 200.000 400.000 L 351.600 400.000 351.600 388.200 L 351.600 376.400 364.000 376.400 L 376.400 376.400 376.400 364.000 L 376.400 351.600 388.200 351.600 L 400.000 351.600 400.000 200.000 L 400.000 48.400 388.200 48.400 L 376.400 48.400 376.400 36.000 L 376.400 23.600 364.000 23.600 L 351.600 23.600 351.600 11.800 L 351.600 0.000 200.000 0.000 L 48.400 0.000 48.400 11.800 M350.408 24.800 C 350.624 25.141,350.793 30.401,350.800 37.000 C 350.807 43.380,350.950 48.817,351.119 49.082 C 351.343 49.435,354.501 49.596,362.927 49.682 C 372.628 49.782,374.489 49.894,374.809 50.400 C 375.324 51.216,375.324 348.784,374.809 349.600 C 374.489 350.106,372.629 350.218,362.934 350.318 C 355.726 350.392,351.251 350.591,350.937 350.853 C 350.560 351.165,350.405 354.165,350.317 362.850 C 350.218 372.620,350.106 374.489,349.600 374.809 C 348.784 375.324,51.216 375.324,50.400 374.809 C 49.894 374.489,49.782 372.628,49.682 362.927 C 49.596 354.501,49.435 351.343,49.082 351.119 C 48.817 350.950,43.380 350.807,37.000 350.800 C 30.401 350.793,25.141 350.624,24.800 350.408 C 24.125 349.982,23.859 50.408,24.533 49.733 C 24.716 49.550,30.296 49.310,36.933 49.200 L 49.000 49.000 49.215 36.800 C 49.333 30.090,49.468 24.568,49.515 24.528 C 49.947 24.162,69.991 24.113,200.715 24.153 C 332.970 24.195,350.073 24.269,350.408 24.800 M276.080 76.080 C 275.387 76.773,275.387 123.227,276.080 123.920 C 276.765 124.605,298.435 124.605,299.120 123.920 C 299.470 123.570,299.600 120.476,299.600 112.502 L 299.600 101.564 300.582 100.582 L 301.564 99.600 312.502 99.600 C 320.476 99.600,323.570 99.470,323.920 99.120 C 324.605 98.435,324.605 76.765,323.920 76.080 C 323.227 75.387,276.773 75.387,276.080 76.080 M176.080 176.080 C 175.387 176.773,175.387 223.227,176.080 223.920 C 176.765 224.605,198.435 224.605,199.120 223.920 C 199.470 223.570,199.600 220.476,199.600 212.502 L 199.600 201.564 200.582 200.582 L 201.564 199.600 212.502 199.600 C 220.476 199.600,223.570 199.470,223.920 199.120 C 224.605 198.435,224.605 176.765,223.920 176.080 C 223.227 175.387,176.773 175.387,176.080 176.080 M76.080 276.080 C 75.387 276.773,75.387 323.227,76.080 323.920 C 76.765 324.605,98.435 324.605,99.120 323.920 C 99.470 323.570,99.600 320.476,99.600 312.502 L 99.600 301.564 100.582 300.582 L 101.564 299.600 112.502 299.600 C 120.476 299.600,123.570 299.470,123.920 299.120 C 124.605 298.435,124.605 276.765,123.920 276.080 C 123.227 275.387,76.773 275.387,76.080 276.080 " stroke="none" fill="#64645c" fill-rule="evenodd"></path><path id="path4" d="M50.500 24.281 C 50.005 24.377,49.562 24.488,49.515 24.528 C 49.468 24.568,49.333 30.090,49.215 36.800 L 49.000 49.000 36.933 49.200 C 30.296 49.310,24.716 49.550,24.533 49.733 C 23.859 50.408,24.125 349.982,24.800 350.408 C 25.141 350.624,30.401 350.793,37.000 350.800 C 43.380 350.807,48.817 350.950,49.082 351.119 C 49.435 351.343,49.596 354.501,49.682 362.927 C 49.782 372.628,49.894 374.489,50.400 374.809 C 51.216 375.324,348.784 375.324,349.600 374.809 C 350.106 374.489,350.218 372.620,350.317 362.850 C 350.405 354.165,350.560 351.165,350.937 350.853 C 351.251 350.591,355.726 350.392,362.934 350.318 C 372.629 350.218,374.489 350.106,374.809 349.600 C 375.324 348.784,375.324 51.216,374.809 50.400 C 374.489 49.894,372.628 49.782,362.927 49.682 C 354.501 49.596,351.343 49.435,351.119 49.082 C 350.950 48.817,350.807 43.380,350.800 37.000 C 350.793 30.401,350.624 25.141,350.408 24.800 C 350.047 24.228,53.425 23.714,50.500 24.281 M349.511 25.023 C 350.394 25.641,350.400 25.720,350.400 37.004 C 350.400 44.772,350.547 48.684,350.864 49.381 L 351.328 50.400 362.650 50.400 C 373.434 50.400,373.992 50.437,374.386 51.174 C 374.966 52.257,374.966 347.743,374.386 348.826 C 373.992 349.563,373.435 349.600,362.712 349.600 C 348.005 349.600,349.600 348.012,349.600 362.656 C 349.600 373.434,349.563 373.992,348.826 374.386 C 347.743 374.966,52.257 374.966,51.174 374.386 C 50.437 373.992,50.400 373.434,50.400 362.650 L 50.400 351.328 49.381 350.864 C 48.684 350.547,44.772 350.400,37.004 350.400 C 25.720 350.400,25.641 350.394,25.023 349.511 C 24.070 348.150,24.070 51.850,25.023 50.489 C 25.642 49.605,25.715 49.600,37.143 49.600 C 45.552 49.600,48.769 49.471,49.120 49.120 C 49.471 48.769,49.600 45.552,49.600 37.143 C 49.600 25.715,49.605 25.642,50.489 25.023 C 51.850 24.070,348.150 24.070,349.511 25.023 M275.680 75.680 C 274.987 76.373,274.987 123.627,275.680 124.320 C 276.481 125.121,298.350 124.990,299.511 124.177 C 300.393 123.559,300.400 123.472,300.400 112.457 C 300.400 104.359,300.530 101.230,300.880 100.880 C 301.230 100.530,304.359 100.400,312.457 100.400 C 323.472 100.400,323.559 100.393,324.177 99.511 C 324.990 98.350,325.121 76.481,324.320 75.680 C 323.627 74.987,276.373 74.987,275.680 75.680 M323.920 76.080 C 324.605 76.765,324.605 98.435,323.920 99.120 C 323.570 99.470,320.476 99.600,312.502 99.600 L 301.564 99.600 300.582 100.582 L 299.600 101.564 299.600 112.502 C 299.600 120.476,299.470 123.570,299.120 123.920 C 298.435 124.605,276.765 124.605,276.080 123.920 C 275.387 123.227,275.387 76.773,276.080 76.080 C 276.773 75.387,323.227 75.387,323.920 76.080 M175.680 175.680 C 174.987 176.373,174.987 223.627,175.680 224.320 C 176.481 225.121,198.350 224.990,199.511 224.177 C 200.393 223.559,200.400 223.472,200.400 212.457 C 200.400 204.359,200.530 201.230,200.880 200.880 C 201.230 200.530,204.359 200.400,212.457 200.400 C 223.472 200.400,223.559 200.393,224.177 199.511 C 224.990 198.350,225.121 176.481,224.320 175.680 C 223.627 174.987,176.373 174.987,175.680 175.680 M223.920 176.080 C 224.605 176.765,224.605 198.435,223.920 199.120 C 223.570 199.470,220.476 199.600,212.502 199.600 L 201.564 199.600 200.582 200.582 L 199.600 201.564 199.600 212.502 C 199.600 220.476,199.470 223.570,199.120 223.920 C 198.435 224.605,176.765 224.605,176.080 223.920 C 175.387 223.227,175.387 176.773,176.080 176.080 C 176.773 175.387,223.227 175.387,223.920 176.080 M75.680 275.680 C 74.987 276.373,74.987 323.627,75.680 324.320 C 76.481 325.121,98.350 324.990,99.511 324.177 C 100.393 323.559,100.400 323.472,100.400 312.457 C 100.400 304.359,100.530 301.230,100.880 300.880 C 101.230 300.530,104.359 300.400,112.457 300.400 C 123.472 300.400,123.559 300.393,124.177 299.511 C 124.990 298.350,125.121 276.481,124.320 275.680 C 123.627 274.987,76.373 274.987,75.680 275.680 M123.920 276.080 C 124.605 276.765,124.605 298.435,123.920 299.120 C 123.570 299.470,120.476 299.600,112.502 299.600 L 101.564 299.600 100.582 300.582 L 99.600 301.564 99.600 312.502 C 99.600 320.476,99.470 323.570,99.120 323.920 C 98.435 324.605,76.765 324.605,76.080 323.920 C 75.387 323.227,75.387 276.773,76.080 276.080 C 76.773 275.387,123.227 275.387,123.920 276.080 " stroke="none" fill="#749c88" fill-rule="evenodd"></path></g></svg>